{
  "accessors": [
    {
      "bufferView": 2,
      "componentType": 5126,
      "count": 8485,
      "max": [
        58.00617218017578,
        8.237715721130371,
        5.085381507873535
      ],
      "min": [
        -32.057037353515625,
        -149.99295043945313,
        -10.796159744262695
      ],
      "type": "VEC3"
    },
    {
      "bufferView": 2,
      "byteOffset": 101820,
      "componentType": 5126,
      "count": 8485,
      "type": "VEC3"
    },
    {
      "bufferView": 1,
      "componentType": 5126,
      "count": 8485,
      "type": "VEC2"
    },
    {
      "bufferView": 0,
      "componentType": 5125,
      "count": 44322,
      "type": "SCALAR"
    }
  ],
  "asset": {
    "generator": "fab-model-conversion",
    "version": "2.0"
  },
  "bufferViews": [
    {
      "buffer": 0,
      "byteLength": 177288,
      "target": 34963
    },
    {
      "buffer": 0,
      "byteLength": 67880,
      "byteOffset": 177288,
      "byteStride": 8,
      "target": 34962
    },
    {
      "buffer": 0,
      "byteLength": 203640,
      "byteOffset": 245168,
      "byteStride": 12,
      "target": 34962
    }
  ],
  "buffers": [
    {
      "byteLength": 448808,
      "uri": "scene.bin"
    }
  ],
  "images": [
    {
      "uri": "textures/05_-_Default_baseColor.jpeg"
    }
  ],
  "materials": [
    {
      "doubleSided": true,
      "name": "05_-_Default",
      "pbrMetallicRoughness": {
        "baseColorTexture": {
          "index": 0
        },
        "metallicFactor": 0.0,
        "roughnessFactor": 0.8002774231
      }
    }
  ],
  "meshes": [
    {
      "name": "Granada high poly_05 - Default_0",
      "primitives": [
        {
          "attributes": {
            "NORMAL": 1,
            "POSITION": 0,
            "TEXCOORD_0": 2
          },
          "indices": 3,
          "material": 0,
          "mode": 4
        }
      ]
    }
  ],
  "nodes": [
    {
      "children": [
        1
      ],
      "matrix": [
        1.0,
        0.0,
        0.0,
        0.0,
        0.0,
        2.220446049250313e-16,
        -1.0,
        0.0,
        0.0,
        1.0,
        2.220446049250313e-16,
        0.0,
        0.0,
        0.0,
        0.0,
        1.0
      ],
      "name": "Sketchfab_model"
    },
    {
      "children": [
        2
      ],
      "matrix": [
        1.0,
        0.0,
        0.0,
        0.0,
        0.0,
        -1.0,
        0.0,
        0.0,
        0.0,
        0.0,
        -1.0,
        0.0,
        0.0,
        0.0,
        0.0,
        1.0
      ],
      "name": "d8d4fed828314e9d8ab44aeb952e734f.fbx"
    },
    {
      "children": [
        3
      ],
      "name": "RootNode"
    },
    {
      "children": [
        4
      ],
      "matrix": [
        3.2178337574005127,
        0.0,
        0.0,
        0.0,
        0.0,
        3.8372287044060037e-08,
        -3.2178337574005123,
        0.0,
        0.0,
        16.514667510986325,
        1.9693545718804041e-07,
        0.0,
        0.0,
        0.0,
        0.0,
        1.0
      ],
      "name": "Granada high poly"
    },
    {
      "children": [
        5
      ],
      "matrix": [
        1.0,
        0.0,
        -0.0,
        0.0,
        0.0,
        1.0,
        0.0,
        0.0,
        0.0,
        0.0,
        1.0,
        0.0,
        -12.9745664596558,
        70.8776168823242,
        2.85538911819458,
        1.0
      ],
      "name": "Object_4"
    },
    {
      "mesh": 0,
      "name": "Granada high poly_05 - Default_0"
    }
  ],
  "samplers": [
    {
      "magFilter": 9729,
      "minFilter": 9987,
      "wrapS": 10497,
      "wrapT": 10497
    }
  ],
  "scene": 0,
  "scenes": [
    {
      "name": "Sketchfab_Scene",
      "nodes": [
        0
      ]
    }
  ],
  "textures": [
    {
      "sampler": 0,
      "source": 0
    }
  ]
}
